<svg xmlns="http://www.w3.org/2000/svg"
    width="18" height="18" fill="none">
    <path fill="#fff" fill-rule="evenodd"
        d="M14.776 3.904c-.994-.841-2.06-1.287-3.142-1.28-.936.007-1.826.352-2.635.976-.817-.625-1.72-.956-2.66-.956-1.084 0-2.148.442-3.115 1.26-1.08.914-1.55 2.339-1.536 3.747.014 1.41.513 2.887 1.48 3.97 1.773 1.987 3.875 3.606 4.892 4.343a1.599 1.599 0 0 0 1.88.002c.412-.297.998-.736 1.664-1.282a.563.563 0 1 0-.713-.87 33.58 33.58 0 0 1-1.609 1.24.474.474 0 0 1-.562 0c-.991-.72-3.018-2.283-4.713-4.182-.764-.856-1.182-2.06-1.194-3.233-.012-1.176.383-2.238 1.138-2.877.808-.684 1.624-.993 2.388-.993.762 0 1.541.307 2.283.98a.563.563 0 0 0 .756 0c.748-.679 1.514-.994 2.264-1 .752-.005 1.566.301 2.407 1.013.781.662 1.176 1.772 1.136 2.99a.562.562 0 1 0 1.124.038c.049-1.455-.417-2.941-1.533-3.886zM13.5 8.062a.562.562 0 1 0-1.125 0v1.689h-1.688a.562.562 0 1 0 0 1.125h1.688v1.686a.562.562 0 1 0 1.125 0v-1.686h1.688a.562.562 0 1 0 0-1.125H13.5V8.062z"
        clip-rule="evenodd"/>
</svg>