<svg xmlns="http://www.w3.org/2000/svg"
    width="18" height="18" fill="none">
    <path fill="currentColor"
        fill-rule="evenodd"
        d="M14.776 3.904c-.994-.841-2.06-1.287-3.142-1.28-.936.007-1.826.352-2.635.976-.817-.625-1.72-.956-2.66-.956-1.084 0-2.148.442-3.115 1.26-1.08.914-1.55 2.339-1.536 3.747.014 1.41.513 2.887 1.48 3.97 1.902 2.131 4.182 3.839 5.098 4.49.44.314 1.026.315 1.468.003.92-.652 3.21-2.36 5.1-4.494.965-1.09 1.464-2.566 1.478-3.975.014-1.407-.457-2.827-1.536-3.741zM13.06 7.01a.562.562 0 0 1-.006.795l-3.799 3.737a1.125 1.125 0 0 1-1.578 0L5.703 9.6a.563.563 0 0 1 .789-.802l1.975 1.943 3.798-3.737a.563.563 0 0 1 .796.007z"
    clip-rule="evenodd"/>
</svg>