<?xml version="1.0" encoding="utf-8"?>
<svg xmlns="http://www.w3.org/2000/svg"
     height="40" width="40" viewBox="0 0 1024 1024">
    <path fill="#ff2c2c2c"
          d="M303.66,463.13a268.52,268.52 0,0 1,-62.18 -172.22c0,-149.13 121.16,-269.96 270.52,-269.96 27,0 48.87,21.88 48.87,48.87v234.45A269.78,269.78 0,0 1,733.65 242.04c149.41,0 270.52,120.83 270.52,269.96 0,27 -21.88,48.87 -48.87,48.87h-234.96a268.52,268.52 0,0 1,62.18 172.22c0,149.13 -121.16,269.96 -270.52,269.96 -27,0 -48.87,-21.88 -48.87,-48.87v-234.45A269.78,269.78 0,0 1,290.35 781.96C140.94,781.96 19.83,661.13 19.83,512c0,-27 21.88,-48.87 48.87,-48.87h234.96zM339.22,290.91A172.36,172.36 0,0 0,463.13 456.15L463.13,125.67a172.36,172.36 0,0 0,-123.9 165.24zM684.78,733.09a172.36,172.36 0,0 0,-123.9 -165.24v330.47a172.36,172.36 0,0 0,123.9 -165.24zM733.65,339.78a172.78,172.78 0,0 0,-165.7 123.35h331.4a172.78,172.78 0,0 0,-165.7 -123.35zM290.35,684.22a172.78,172.78 0,0 0,165.7 -123.35h-331.4a172.78,172.78 0,0 0,165.7 123.35z" />
</svg>