<?xml version="1.0" encoding="utf-8"?>
<svg xmlns="http://www.w3.org/2000/svg"
     height="40" width="40" viewBox="0 0 1024 1024">
    <path fill="#ff2c2c2c" d="M295.42,183.85C315.44,85.64 399.36,11.64 500.36,11.64c101,0 184.93,74.01 204.94,172.22h73.26a56.04,56.04 0,0 1,1.26 0c78.89,0 144.9,59.86 151.88,137.68l47.34,479.19c9.17,102.35 -66.93,192.56 -169.75,201.59 -5.49,0.47 -11.03,0.74 -16.52,0.74L231.24,1003.05C128.05,1003.05 44.22,919.92 44.22,817.2c0,-5.49 0.23,-10.98 0.79,-16.94L92.25,322A152.16,152.16 0,0 1,244.18 183.85h51.25zM367.38,183.85h265.96c-18.11,-59.58 -71.03,-102.4 -132.98,-102.4 -61.95,0 -114.87,42.82 -132.98,102.4zM290.91,281.6L244.18,281.6c-28.49,0 -52.08,21.41 -54.6,49.57L142.29,809.43a86.95,86.95 0,0 0,-0.33 7.77c0,48.59 39.89,88.11 89.27,88.11h561.52c2.65,0 5.31,-0.14 7.91,-0.33 49.2,-4.38 85.32,-47.2 81.04,-95.09L834.37,330.75a54.41,54.41 0,0 0,-55.81 -49.15L709.82,281.6v20.95a34.91,34.91 0,0 1,-69.82 0v-20.95h-279.27v20.95a34.91,34.91 0,0 1,-69.82 0v-20.95zM512,379.9L560.92,372.36v53.9L721.45,388.19L721.45,791.27h-47.38l-13.17,-351.14 -125.44,60.23L512,500.36L512,379.9zM567.67,535.27h64.33l-19.18,83.97L651.64,619.24L598.34,721.45v-76.57L558.55,644.89l9.12,-109.61zM294.03,407.6L477.14,372.36l11.59,256L438.55,628.36L438.55,445.35l-109.71,24.39v118.78L279.27,588.52l14.75,-180.92zM361.98,535.27h33.61L410.53,651.64 512,700.23l-16.8,67.77 -99.61,-67.77L395.59,768L349.09,768l12.89,-232.73z" />
</svg>