<?xml version="1.0" encoding="utf-8"?>
<svg xmlns="http://www.w3.org/2000/svg"
    height="40" width="40" viewBox="0 0 1024 1024">
    <path fill="#ff2c2c2c" d="M298.03,209.45L198.52,118.92a34.91,34.91 0,1 1,46.96 -51.67L401.83,209.45h206.38l160.35,-142.43a34.91,34.91 0,1 1,46.36 52.13L713.31,209.45L768,209.45a232.73,232.73 0,0 1,232.73 232.73v290.91a232.73,232.73 0,0 1,-232.73 232.73h-512a232.73,232.73 0,0 1,-232.73 -232.73L23.27,442.18a232.73,232.73 0,0 1,232.73 -232.73h42.03zM256,302.55a139.64,139.64 0,0 0,-139.64 139.64v290.91a139.64,139.64 0,0 0,139.64 139.64h512a139.64,139.64 0,0 0,139.64 -139.64L907.64,442.18a139.64,139.64 0,0 0,-139.64 -139.64h-512zM232.73,604.72a34.91,34.91 0,0 1,0 -69.82h186.18a34.91,34.91 0,0 1,0 69.82L232.73,604.72zM605.09,605.98a34.91,34.91 0,1 1,0 -69.82h186.18a34.91,34.91 0,0 1,0 69.82h-186.18z" />
</svg>