<svg xmlns="http://www.w3.org/2000/svg"
    viewBox="0 0 28 28" width="28" height="28">
    <g transform="matrix(1,0,0,1,12.662751197814941,14)" opacity="0.21680479110502304" style="display: none;">
        <g opacity="1" transform="matrix(1,0,0,1,0,0)">
            <path fill="rgb(255,255,255)" fill-opacity="1" d="M0 0"/><path stroke-linecap="butt" stroke-linejoin="miter" fill-opacity="0" stroke-miterlimit="4" stroke="rgb(255,255,255)" stroke-opacity="1" stroke-width="0" d="M0 0"/>
        </g>
        <g opacity="1" transform="matrix(1,0,0,1,0,0)"><path fill="rgb(255,255,255)" fill-opacity="1" d=" M-7.031000137329102,-10.875 C-7.031000137329102,-10.875 -8.32800006866455,-11.25 -9.42199993133545,-10.468999862670898 C-10.109999656677246,-9.906999588012695 -10,-7.992000102996826 -10,-7.992000102996826 C-10,-7.992000102996826 -10,8.015999794006348 -10,8.015999794006348 C-10,8.015999794006348 -10.125,10.241999626159668 -9,10.991999626159668 C-7.875,11.741999626159668 -5,10.031000137329102 -5,10.031000137329102 C-5,10.031000137329102 7.968999862670898,1.875 7.968999862670898,1.875 C7.968999862670898,1.875 9,1.062000036239624 9,0 C9,-1.062000036239624 7.968999862670898,-1.937999963760376 7.968999862670898,-1.937999963760376 C7.968999862670898,-1.937999963760376 -7.031000137329102,-10.875 -7.031000137329102,-10.875z"/>
            <path stroke-linecap="butt" stroke-linejoin="miter" fill-opacity="0" stroke-miterlimit="4" stroke="rgb(255,255,255)" stroke-opacity="1" stroke-width="0" d=" M-7.031000137329102,-10.875 C-7.031000137329102,-10.875 -8.32800006866455,-11.25 -9.42199993133545,-10.468999862670898 C-10.109999656677246,-9.906999588012695 -10,-7.992000102996826 -10,-7.992000102996826 C-10,-7.992000102996826 -10,8.015999794006348 -10,8.015999794006348 C-10,8.015999794006348 -10.125,10.241999626159668 -9,10.991999626159668 C-7.875,11.741999626159668 -5,10.031000137329102 -5,10.031000137329102 C-5,10.031000137329102 7.968999862670898,1.875 7.968999862670898,1.875 C7.968999862670898,1.875 9,1.062000036239624 9,0 C9,-1.062000036239624 7.968999862670898,-1.937999963760376 7.968999862670898,-1.937999963760376 C7.968999862670898,-1.937999963760376 -7.031000137329102,-10.875 -7.031000137329102,-10.875z"/>
        </g>
    </g>
</svg>