<?xml version="1.0" standalone="no"?>

<svg  fill="currentColor" color="#fff" viewBox="0 0 1145 1024" version="1.1" xmlns="http://www.w3.org/2000/svg" width="20" height="20" ><path d="M572.886903 1024c-4.772425 0-11.93806-2.39321-16.710485-4.78642-21.482909-9.537852-556.155425-281.657031-556.155425-689.818306 0-181.408121 147.987153-329.395274 329.395274-329.395274 93.083275 0 181.408121 40.572608 243.463638 107.414545 62.055517-69.221152 150.366367-107.414545 243.463638-107.414545 181.408121 0 329.388276 147.987153 329.388276 329.395274 0 408.161275-534.658521 680.280454-556.155425 689.818306-4.758429 2.39321-11.917066 4.78642-16.689491 4.78642zM329.423265 73.993576c-140.828516 0-255.401697 114.58018-255.401698 255.408696 0 324.622849 410.547487 568.093485 498.872333 615.817732 88.310851-47.724247 498.865335-291.194883 498.865336-615.82473 0-140.828516-114.573182-255.401697-255.401698-255.401698-85.91764 0-164.690639 42.965818-212.435879 114.58018-14.310276 21.482909-47.738243 21.482909-62.055517 0-47.752238-71.621359-126.518239-114.58018-212.442877-114.58018z"  /></svg>