<svg xmlns="http://www.w3.org/2000/svg"
    viewBox="0 0 28 28" width="28" height="28">
    <g transform="matrix(1,0,0,1,14,14)" opacity="1" style="display: block;">
        <g opacity="1" transform="matrix(1,0,0,1,0,0)">
            <path fill="rgb(255,255,255)" fill-opacity="1" d=" M-5.484000205993652,-10 C-7.953000068664551,-10 -8,-7.984000205993652 -8,-7.984000205993652 C-8,-7.984000205993652 -8.008000373840332,7.984000205993652 -8.008000373840332,7.984000205993652 C-8.008000373840332,7.984000205993652 -7.984000205993652,9.991999626159668 -5.5,9.991999626159668 C-3.0160000324249268,9.991999626159668 -3.003999948501587,7.995999813079834 -3.003999948501587,7.995999813079834 C-3.003999948501587,7.995999813079834 -2.9839999675750732,-8 -2.9839999675750732,-8 C-2.9839999675750732,-8 -3.015000104904175,-10 -5.484000205993652,-10z"/>
            <path stroke-linecap="butt" stroke-linejoin="miter" fill-opacity="0" stroke-miterlimit="4" stroke="rgb(255,255,255)" stroke-opacity="1" stroke-width="0" d=" M-5.484000205993652,-10 C-7.953000068664551,-10 -8,-7.984000205993652 -8,-7.984000205993652 C-8,-7.984000205993652 -8.008000373840332,7.984000205993652 -8.008000373840332,7.984000205993652 C-8.008000373840332,7.984000205993652 -7.984000205993652,9.991999626159668 -5.5,9.991999626159668 C-3.0160000324249268,9.991999626159668 -3.003999948501587,7.995999813079834 -3.003999948501587,7.995999813079834 C-3.003999948501587,7.995999813079834 -2.9839999675750732,-8 -2.9839999675750732,-8 C-2.9839999675750732,-8 -3.015000104904175,-10 -5.484000205993652,-10z"/>
        </g>
    </g>
    <g transform="matrix(1,0,0,1,24.812000274658203,14)" opacity="1" style="display: block;"><g opacity="1" transform="matrix(1,0,0,1,0,0)"><path fill="rgb(255,255,255)" fill-opacity="1" d=" M-5.484000205993652,-10 C-7.953000068664551,-10 -8,-7.984000205993652 -8,-7.984000205993652 C-8,-7.984000205993652 -8.008000373840332,7.984000205993652 -8.008000373840332,7.984000205993652 C-8.008000373840332,7.984000205993652 -7.984000205993652,9.991999626159668 -5.5,9.991999626159668 C-3.0160000324249268,9.991999626159668 -3.003999948501587,7.995999813079834 -3.003999948501587,7.995999813079834 C-3.003999948501587,7.995999813079834 -2.9839999675750732,-8 -2.9839999675750732,-8 C-2.9839999675750732,-8 -3.015000104904175,-10 -5.484000205993652,-10z"/>
        <path stroke-linecap="butt" stroke-linejoin="miter" fill-opacity="0" stroke-miterlimit="4" stroke="rgb(255,255,255)" stroke-opacity="1" stroke-width="0" d=" M-5.484000205993652,-10 C-7.953000068664551,-10 -8,-7.984000205993652 -8,-7.984000205993652 C-8,-7.984000205993652 -8.008000373840332,7.984000205993652 -8.008000373840332,7.984000205993652 C-8.008000373840332,7.984000205993652 -7.984000205993652,9.991999626159668 -5.5,9.991999626159668 C-3.0160000324249268,9.991999626159668 -3.003999948501587,7.995999813079834 -3.003999948501587,7.995999813079834 C-3.003999948501587,7.995999813079834 -2.9839999675750732,-8 -2.9839999675750732,-8 C-2.9839999675750732,-8 -3.015000104904175,-10 -5.484000205993652,-10z"/>
    </g>
    </g>
</svg>